<?xml version="1.0" encoding="UTF-8" standalone="no"?>
<!DOCTYPE svg PUBLIC "-//W3C//DTD SVG 1.1//EN" "http://www.w3.org/Graphics/SVG/1.1/DTD/svg11.dtd">
<svg width="100%" height="100%" viewBox="0 0 1000 650" version="1.1" xmlns="http://www.w3.org/2000/svg" xmlns:xlink="http://www.w3.org/1999/xlink" xml:space="preserve" xmlns:serif="http://www.serif.com/" style="fill-rule:evenodd;clip-rule:evenodd;stroke-linecap:round;stroke-linejoin:round;stroke-miterlimit:1.5;">
    <g transform="matrix(1.09195,0,0,1.09195,290.205,-57.5699)">
        <g id="_-" serif:id="´" transform="matrix(0.571408,0,0,0.571408,-4947.89,-3051.37)">
            <path d="M9280.57,5468.71C9284.72,5459.72 9290.65,5451.88 9298.04,5445L9272.02,5444.8C9275.89,5452.81 9278.16,5460.78 9279.65,5468.72L9280.57,5468.71Z" style="fill:rgb(173,115,74);stroke:rgb(173,115,74);stroke-width:1.34px;"/>
        </g>
        <g transform="matrix(0.571408,0,0,0.571408,-5023.89,-3051.37)">
            <path d="M9281.9,5479.97C9286.92,5479.97 9293.27,5479.98 9298.59,5480L9308.41,5480L9308.41,5480L9308.44,5480L9308.42,5480.02L9308.41,5485.44L9308.41,5486.75L9308.41,5487.62L9308.41,5488.44L9308.42,5489.59L9308.43,5491.44C9308.43,5492.22 9308.43,5493.18 9308.44,5494.39C9308.27,5494.1 9308.1,5493.82 9307.94,5493.57C9307.48,5492.85 9307.06,5492.25 9306.64,5491.74L9306.53,5491.62C9306.27,5491.31 9306,5491.03 9305.74,5490.78L9305.64,5490.68C9305.31,5490.38 9304.98,5490.12 9304.64,5489.89C9304.37,5489.7 9304.1,5489.53 9303.81,5489.37C9303.68,5489.3 9303.55,5489.22 9303.42,5489.15C9302.82,5488.84 9302.17,5488.55 9301.44,5488.22L9301.25,5488.14L9301.19,5488.12L9301.06,5488.06L9300.99,5488.04L9300.85,5487.98L9300.79,5487.96L9300.6,5487.89L9300.57,5487.88L9300.4,5487.81L9300.33,5487.79L9300.2,5487.74L9300.13,5487.72L9299.98,5487.66L9299.92,5487.65L9299.72,5487.58L9299.68,5487.56L9299.52,5487.51L9299.45,5487.49L9299.31,5487.44L9299.24,5487.42L9299.08,5487.38L9299.03,5487.36L9298.82,5487.3L9298.76,5487.28L9298.61,5487.24L9298.53,5487.22L9298.39,5487.18L9298.32,5487.16L9298.15,5487.11L9298.1,5487.1L9297.89,5487.05L9297.82,5487.03L9297.68,5486.99L9297.59,5486.97L9297.45,5486.94L9297.37,5486.92L9297.2,5486.88L9297.15,5486.87L9296.94,5486.82L9296.86,5486.8L9296.72,5486.78L9296.63,5486.76L9296.5,5486.73L9296.4,5486.71L9296.24,5486.68L9296.19,5486.66L9296.12,5486.65L9295.97,5486.62L9295.86,5486.6L9295.75,5486.58L9295.63,5486.56L9295.52,5486.54L9295.41,5486.52L9295.28,5486.5L9295.19,5486.48L9295.08,5486.46L9294.98,5486.45L9294.84,5486.42L9294.75,5486.41L9294.61,5486.39L9294.53,5486.38L9294.38,5486.35C9294.32,5486.34 9294.25,5486.33 9294.18,5486.32L9294.01,5486.3L9293.97,5486.29L9293.56,5486.24L9293.55,5486.23C9292.03,5486.03 9290.43,5485.89 9288.77,5485.79C9287.51,5485.72 9286.21,5485.67 9284.87,5485.63C9284.73,5485.63 9284.59,5485.63 9284.45,5485.63C9278.68,5485.52 9270.82,5485.61 9270.76,5485.62C9270.77,5485.95 9270.66,5507.84 9270.53,5535.19C9270.41,5560.73 9270.26,5591.03 9270.16,5613L9270.18,5613L9270.18,5613.55C9270.18,5616.28 9270.15,5619.09 9270.19,5621.83C9270.34,5626.09 9270.69,5629.98 9271.54,5633.39C9271.67,5633.92 9271.82,5634.44 9271.98,5634.96C9272.2,5635.67 9272.45,5636.37 9272.73,5637.03C9273.02,5637.67 9273.28,5638.24 9273.55,5638.78C9273.63,5638.94 9273.71,5639.1 9273.8,5639.25L9273.86,5639.36C9274.12,5639.82 9274.4,5640.26 9274.74,5640.69C9274.88,5640.87 9275.03,5641.05 9275.19,5641.22C9275.25,5641.28 9275.31,5641.35 9275.37,5641.41C9275.55,5641.59 9275.73,5641.77 9275.94,5641.95L9276.02,5642.02L9276.14,5642.12C9276.31,5642.27 9276.5,5642.42 9276.69,5642.57C9277.3,5643.03 9278.02,5643.51 9278.9,5644.03C9278.89,5645.24 9278.89,5645.98 9278.89,5646.98L9278.78,5646.98L9278.78,5647L9276,5647L9250.66,5647L9247.88,5647L9247.88,5646.98L9247.77,5646.98C9247.77,5646.73 9247.77,5646.5 9247.77,5646.27L9247.77,5645.93C9247.77,5645.59 9247.77,5645.24 9247.77,5644.86C9247.77,5644.6 9247.76,5644.33 9247.76,5644.03C9248.66,5643.5 9249.4,5643 9250.02,5642.53C9250.2,5642.39 9250.37,5642.25 9250.53,5642.11C9250.93,5641.78 9251.27,5641.44 9251.58,5641.1C9251.75,5640.9 9251.92,5640.7 9252.07,5640.5C9252.24,5640.27 9252.4,5640.03 9252.55,5639.79L9252.61,5639.68C9252.79,5639.39 9252.95,5639.09 9253.11,5638.78C9253.38,5638.24 9253.64,5637.67 9253.93,5637.03C9254.15,5636.52 9254.35,5635.98 9254.53,5635.43C9254.78,5634.68 9255,5633.9 9255.2,5633.09C9255.26,5632.83 9255.32,5632.56 9255.38,5632.29C9255.4,5632.18 9255.43,5632.06 9255.45,5631.95C9256.07,5628.9 9256.34,5625.5 9256.47,5621.83C9256.49,5620.91 9256.49,5619.99 9256.49,5619.07L9256.49,5618.52C9256.49,5616.67 9256.48,5614.82 9256.49,5613L9256.5,5613C9256.29,5569.19 9255.9,5491.84 9255.87,5485.62C9255.41,5485.6 9247.82,5485.53 9242.21,5485.63C9242.07,5485.63 9241.93,5485.63 9241.79,5485.63C9235.35,5485.8 9229.68,5486.33 9225.22,5488.22C9222.28,5489.55 9220.65,5490.26 9218.22,5494.39C9218.26,5484.75 9218.25,5490.78 9218.25,5480L9218.25,5480L9218.25,5480L9228.07,5480C9235.17,5479.98 9244.09,5479.95 9249.25,5479.97L9249.25,5480L9263.33,5480L9277.41,5480L9277.41,5479.97C9278.7,5479.97 9280.23,5479.97 9281.9,5479.97Z" style="fill:rgb(173,115,74);stroke:rgb(173,115,74);stroke-width:1.34px;"/>
        </g>
        <g id="É" transform="matrix(0.571408,0,0,0.571408,-5021.6,-3051.37)">
            <path d="M9413.41,5480.02L9413.41,5479.97C9421.67,5479.94 9439.61,5480.03 9444.23,5480.01C9444.31,5480 9444.36,5480 9444.37,5480C9444.37,5480 9444.38,5480 9444.38,5480L9444.42,5480C9444.41,5490.78 9444.4,5484.75 9444.44,5494.39C9442.01,5490.26 9440.38,5489.55 9437.44,5488.22C9433.83,5486.69 9429.42,5486.05 9424.45,5485.78L9384.4,5485.78L9384.4,5486.01C9384.4,5486.64 9384.39,5487.26 9384.39,5487.89L9384.38,5489.75L9384.37,5540.63C9391.2,5540.64 9398,5540.53 9402.89,5538.66C9406.2,5537.23 9408.44,5536.47 9410.37,5532.02C9410.36,5542.8 9410.35,5545.4 9410.39,5555.04C9407.97,5550.91 9406.33,5550.2 9403.4,5548.87C9398.37,5546.74 9391.82,5546.34 9384.37,5546.24L9384.36,5559.3L9384.36,5628.71L9384.35,5628.71C9384.35,5633.25 9384.34,5637.78 9384.34,5641.19L9426.59,5641.19C9431.51,5640.91 9435.88,5640.27 9439.47,5638.75C9442.4,5637.42 9444.04,5636.72 9446.46,5632.58C9446.42,5642.22 9446.43,5636.19 9446.44,5646.97C9446.33,5646.97 9446.22,5646.97 9446.09,5646.97L9446.39,5647.04L9428.71,5646.99C9423.72,5647.01 9418.78,5647.01 9415.43,5647L9415.43,5646.96L9411.31,5646.95L9375.21,5646.95L9361.94,5646.98L9361.94,5646.94L9361.94,5646.94C9361.94,5646.65 9361.94,5646.36 9361.94,5646.06L9361.94,5645.9C9361.94,5645.34 9361.94,5644.77 9361.93,5644.03L9361.93,5644.03L9361.93,5643.99C9366.06,5641.57 9366.77,5639.93 9368.1,5637C9370.09,5632.3 9370.57,5626.26 9370.71,5619.4C9370.71,5618.98 9370.72,5618.56 9370.72,5618.13L9370.72,5549.84C9370.62,5525.79 9370.46,5503.72 9370.4,5494.97C9370.12,5492.2 9369.63,5489.64 9368.8,5487.46C9368.05,5485.72 9367.48,5484.27 9366.46,5483.01C9365,5481.51 9363.02,5480.32 9360.37,5480C9360.93,5480 9361.55,5480.01 9362.22,5480.01C9362.2,5480 9362.18,5480 9362.17,5479.99C9366.18,5479.97 9372.86,5480.03 9384.41,5480.01L9384.41,5480.02L9413.41,5480.02Z" style="fill:rgb(173,115,74);stroke:rgb(173,115,74);stroke-width:1.34px;"/>
        </g>
        <g transform="matrix(0.571408,0,0,0.571408,-5022.75,-3051.37)">
            <path d="M9144.05,5479.94C9144.05,5479.94 9144.63,5479.94 9144.91,5479.94C9149.37,5479.95 9152.11,5480.02 9155.09,5480.05C9157.45,5480.04 9160.26,5480.02 9163.98,5480.01C9158.95,5480.17 9157.38,5481.07 9154.45,5483.15C9152.18,5484.92 9148.1,5490.4 9148.1,5490.4C9148.1,5490.4 9116.12,5540.96 9110.12,5550.96C9113.2,5548.72 9120.34,5550.07 9124.12,5554.9C9134.81,5576.55 9144.26,5598.58 9155.91,5624.66C9157.85,5628.44 9159.74,5632.05 9161.56,5635.4C9161.74,5635.71 9161.93,5636.02 9162.12,5636.35C9164.29,5639.65 9166.79,5642.07 9171.24,5644C9171.23,5644.73 9171.23,5645.74 9171.24,5647L9158.39,5647C9152.34,5647.07 9147.91,5636.55 9144.18,5628.69L9108.48,5553.42L9083.5,5593.14L9083.5,5628.59C9083.77,5631.52 9084.26,5634.24 9085.14,5636.53C9086.57,5639.84 9087.33,5642.07 9091.77,5644C9091.76,5644.73 9091.77,5645.74 9091.78,5647L9060.77,5646.98C9060.78,5645.98 9060.78,5645.24 9060.76,5644.03C9064.89,5641.6 9065.6,5639.97 9066.93,5637.03C9069.51,5630.92 9069.56,5622.55 9069.6,5613.04L9069.6,5613.03C9070.03,5590.2 9069.54,5551.67 9069.68,5510.97C9069.68,5510.89 9069.69,5510.81 9069.69,5510.73C9069.66,5502.43 9070.02,5493.51 9067.73,5487.49C9066.29,5484.18 9065.54,5481.94 9061.09,5480.01C9065.1,5480 9080.56,5480.01 9092.1,5479.99C9087.97,5482.41 9087.26,5484.05 9085.94,5486.98C9084.43,5490.55 9083.78,5494.89 9083.5,5499.77L9083.5,5582.32L9130.31,5507.88C9132.22,5504.8 9134.25,5501.52 9136.44,5497.97C9138.76,5493.98 9140.68,5490.04 9142.09,5486.32C9143.23,5483.25 9140.56,5481.02 9136.18,5480.01C9139.33,5479.97 9141.89,5479.95 9144.05,5479.94Z" style="fill:rgb(173,115,74);stroke:rgb(173,115,74);stroke-width:1.34px;"/>
        </g>
        <g transform="matrix(0.571408,0,0,0.571408,-6858.68,-3051.37)">
            <path d="M12040.5,5480C12042.2,5480 12043.3,5479.99 12043.3,5479.99L12105.5,5606.59L12105.5,5577.82C12105.3,5550.49 12105.4,5530.64 12105.5,5515.44L12105.5,5510.89L12105.5,5510.89C12105.5,5505.97 12105.5,5501.57 12105.5,5497.57C12105.3,5493.81 12104.8,5490.33 12103.7,5487.49C12102.3,5484.19 12101.5,5481.95 12097.1,5480.02C12107.9,5480.03 12110.5,5480.03 12120.1,5479.99C12116,5482.42 12115.3,5484.05 12113.9,5486.99C12111.5,5492.65 12111.3,5500.24 12111.3,5508.89C12111.3,5546.36 12111.3,5617.98 12111.3,5617.98L12117.2,5646.28L12109.3,5646.27L12099,5624.78L12099,5624.8L12033.2,5490.58C12031.8,5496.22 12031.8,5503.22 12031.7,5510.98L12031.7,5510.98C12031.7,5514.56 12031.7,5518.39 12031.7,5522.4L12031.7,5621.92C12031.8,5627.4 12032.1,5632.64 12033.6,5636.61C12035.1,5639.91 12035.8,5642.15 12040.3,5644.08C12040.3,5644.8 12040.3,5645.82 12040.3,5647.08L12018.9,5647.06C12018.6,5647.06 12018.5,5647.07 12018.5,5647.07C12018.5,5647.07 12018.5,5647.06 12018.5,5647.06L12017.3,5647.06C12017.3,5646.06 12017.3,5645.32 12017.3,5644.1C12021.4,5641.68 12022.1,5640.04 12023.4,5637.11C12025.1,5633.22 12025.7,5628.43 12025.9,5623.01L12025.9,5496.49C12025.7,5493.14 12025.2,5490.05 12024.2,5487.48C12022.8,5484.17 12022,5481.93 12017.6,5480.01C12019,5480.01 12020.2,5480.01 12021.4,5480.01C12021.4,5480 12021.4,5480 12021.4,5479.99C12021.7,5480 12022.2,5480 12022.7,5480.01C12029.5,5480.01 12032.7,5480.01 12040.6,5479.98L12040.5,5480Z" style="fill:rgb(173,115,74);stroke:rgb(173,115,74);stroke-width:1.34px;"/>
        </g>
        <g transform="matrix(0.571408,0,0,0.571408,-6714.69,-3051.37)">
            <path d="M11938.7,5501.85C11938.6,5496.48 11938.3,5491.38 11936.8,5487.49C11935.3,5484.18 11934.6,5481.94 11930.1,5480.01C11934.1,5480 11949.6,5480.01 11961.1,5479.99C11957,5482.41 11956.3,5484.05 11955,5486.98C11952.4,5493.04 11952.4,5501.3 11952.3,5510.7L11952.3,5511L11952.3,5511L11952.3,5515.95L11952.3,5516.61C11952.4,5548.67 11952.3,5580.73 11952.4,5612.8L11952.4,5613L11952.4,5613C11952.4,5614.73 11952.4,5616.49 11952.4,5618.25C11952.4,5618.94 11952.4,5619.61 11952.4,5620.28C11952.4,5626.32 11952.7,5632.18 11954.4,5636.53C11955.8,5639.84 11956.6,5642.07 11961,5644C11961,5644.73 11961,5645.74 11961,5647L11930,5646.98C11930,5645.98 11930,5645.24 11930,5644.03C11934.1,5641.6 11934.8,5639.97 11936.2,5637.03C11937.9,5633.02 11938.5,5628.03 11938.7,5622.39L11938.7,5511L11938.7,5511C11938.7,5507.84 11938.7,5504.79 11938.7,5501.85Z" style="fill:rgb(173,115,74);stroke:rgb(173,115,74);stroke-width:1.34px;"/>
        </g>
    </g>
    <g transform="matrix(1.09195,0,0,1.09195,-515.151,123.102)">
        <g transform="matrix(0.571408,0,0,0.571408,-4696.19,-3054.8)">
            <path d="M9771.42,5541.47L9785.53,5541.48C9771.74,5505.66 9743.58,5485.73 9705.04,5484.27C9653.41,5486.08 9620.3,5524.14 9619.37,5568.02C9619.64,5622.15 9663.05,5655.12 9708,5654C9742.95,5652.01 9783.03,5632.57 9790.22,5568.58L9748.02,5568.56L9748,5573L9775.31,5573.13C9776.62,5606.9 9751.57,5647.87 9707.74,5651.36C9668.13,5653.48 9635.91,5617.25 9635,5568C9635.11,5517.1 9670.05,5488.3 9705,5487C9737.16,5487.94 9760.12,5507.8 9771.42,5541.47Z" style="fill:rgb(173,115,74);stroke:rgb(173,115,74);stroke-width:1.34px;"/>
        </g>
        <g transform="matrix(0.385343,-0.42649,0.385437,0.348251,-4804.69,2598.9)">
            <path d="M10341.5,5476C10388.1,5476 10426,5517.9 10426,5569.5C10426,5621.1 10388.1,5663 10341.5,5663C10294.9,5663 10257,5621.1 10257,5569.5C10257,5517.9 10294.9,5476 10341.5,5476ZM10341.5,5477.45C10379.7,5477.45 10410.8,5527.2 10410.8,5569.5C10410.8,5611.8 10379.7,5661.55 10341.5,5661.55C10303.3,5661.55 10272.2,5611.8 10272.2,5569.5C10272.2,5527.2 10303.3,5477.45 10341.5,5477.45Z" style="fill:rgb(173,115,74);stroke:rgb(173,115,74);stroke-width:1.39px;"/>
        </g>
        <g transform="matrix(0.571408,0,0,0.571408,-5015.6,-3051.37)">
            <path d="M10413,5506.2C10413,5499.31 10412.9,5492.42 10411,5487.49C10409.6,5484.18 10408.8,5481.94 10404.4,5480.01C10408.4,5480 10423.8,5480.01 10435.4,5479.99C10431.2,5482.41 10430.5,5484.05 10429.2,5486.98C10426.7,5492.88 10426.6,5500.88 10426.5,5509.98L10426.5,5510L10426.5,5602.01C10427.8,5622.82 10439.6,5645.38 10463,5645.62C10479.7,5645.79 10499.2,5626.94 10500.8,5600.28L10500.8,5506.99L10500.8,5506.92C10500.8,5499.79 10500.8,5492.6 10498.8,5487.49C10497.4,5484.19 10496.6,5481.95 10492.2,5480.02C10503,5480.03 10505.6,5480.03 10515.2,5479.99C10511.1,5482.42 10510.4,5484.05 10509,5486.99C10506.8,5492.23 10506.5,5499.13 10506.4,5506.98L10506.4,5507.05L10506.4,5600.27C10506.1,5632.9 10487.3,5651.09 10463,5652C10434,5654.16 10415.5,5634.39 10413,5602L10412.9,5509.04C10412.8,5508.19 10412.9,5507.23 10413,5506.2Z" style="fill:rgb(173,115,74);stroke:rgb(173,115,74);stroke-width:1.34px;"/>
        </g>
        <g transform="matrix(0.571408,0,0,0.571408,-4783.61,-3051.37)">
            <path d="M9281.9,5479.97C9286.92,5479.97 9293.27,5479.98 9298.59,5480L9308.41,5480L9308.41,5480L9308.44,5480L9308.42,5480.02L9308.41,5485.44L9308.41,5486.75L9308.41,5487.62L9308.41,5488.44L9308.42,5489.59L9308.43,5491.44C9308.43,5492.22 9308.43,5493.18 9308.44,5494.39C9308.27,5494.1 9308.1,5493.82 9307.94,5493.57C9307.48,5492.85 9307.06,5492.25 9306.64,5491.74L9306.53,5491.62C9306.27,5491.31 9306,5491.03 9305.74,5490.78L9305.64,5490.68C9305.31,5490.38 9304.98,5490.12 9304.64,5489.89C9304.37,5489.7 9304.1,5489.53 9303.81,5489.37C9303.68,5489.3 9303.55,5489.22 9303.42,5489.15C9302.82,5488.84 9302.17,5488.55 9301.44,5488.22L9301.25,5488.14L9301.19,5488.12L9301.06,5488.06L9300.99,5488.04L9300.85,5487.98L9300.79,5487.96L9300.6,5487.89L9300.57,5487.88L9300.4,5487.81L9300.33,5487.79L9300.2,5487.74L9300.13,5487.72L9299.98,5487.66L9299.92,5487.65L9299.72,5487.58L9299.68,5487.56L9299.52,5487.51L9299.45,5487.49L9299.31,5487.44L9299.24,5487.42L9299.08,5487.38L9299.03,5487.36L9298.82,5487.3L9298.76,5487.28L9298.61,5487.24L9298.53,5487.22L9298.39,5487.18L9298.32,5487.16L9298.15,5487.11L9298.1,5487.1L9297.89,5487.05L9297.82,5487.03L9297.68,5486.99L9297.59,5486.97L9297.45,5486.94L9297.37,5486.92L9297.2,5486.88L9297.15,5486.87L9296.94,5486.82L9296.86,5486.8L9296.72,5486.78L9296.63,5486.76L9296.5,5486.73L9296.4,5486.71L9296.24,5486.68L9296.19,5486.66L9296.12,5486.65L9295.97,5486.62L9295.86,5486.6L9295.75,5486.58L9295.63,5486.56L9295.52,5486.54L9295.41,5486.52L9295.28,5486.5L9295.19,5486.48L9295.08,5486.46L9294.98,5486.45L9294.84,5486.42L9294.75,5486.41L9294.61,5486.39L9294.53,5486.38L9294.38,5486.35C9294.32,5486.34 9294.25,5486.33 9294.18,5486.32L9294.01,5486.3L9293.97,5486.29L9293.56,5486.24L9293.55,5486.23C9292.03,5486.03 9290.43,5485.89 9288.77,5485.79C9287.51,5485.72 9286.21,5485.67 9284.87,5485.63C9284.73,5485.63 9284.59,5485.63 9284.45,5485.63C9278.68,5485.52 9270.82,5485.61 9270.76,5485.62C9270.77,5485.95 9270.66,5507.84 9270.53,5535.19C9270.41,5560.73 9270.26,5591.03 9270.16,5613L9270.18,5613L9270.18,5613.55C9270.18,5616.28 9270.15,5619.09 9270.19,5621.83C9270.34,5626.09 9270.69,5629.98 9271.54,5633.39C9271.67,5633.92 9271.82,5634.44 9271.98,5634.96C9272.2,5635.67 9272.45,5636.37 9272.73,5637.03C9273.02,5637.67 9273.28,5638.24 9273.55,5638.78C9273.63,5638.94 9273.71,5639.1 9273.8,5639.25L9273.86,5639.36C9274.12,5639.82 9274.4,5640.26 9274.74,5640.69C9274.88,5640.87 9275.03,5641.05 9275.19,5641.22C9275.25,5641.28 9275.31,5641.35 9275.37,5641.41C9275.55,5641.59 9275.73,5641.77 9275.94,5641.95L9276.02,5642.02L9276.14,5642.12C9276.31,5642.27 9276.5,5642.42 9276.69,5642.57C9277.3,5643.03 9278.02,5643.51 9278.9,5644.03C9278.89,5645.24 9278.89,5645.98 9278.89,5646.98L9278.78,5646.98L9278.78,5647L9276,5647L9250.66,5647L9247.88,5647L9247.88,5646.98L9247.77,5646.98C9247.77,5646.73 9247.77,5646.5 9247.77,5646.27L9247.77,5645.93C9247.77,5645.59 9247.77,5645.24 9247.77,5644.86C9247.77,5644.6 9247.76,5644.33 9247.76,5644.03C9248.66,5643.5 9249.4,5643 9250.02,5642.53C9250.2,5642.39 9250.37,5642.25 9250.53,5642.11C9250.93,5641.78 9251.27,5641.44 9251.58,5641.1C9251.75,5640.9 9251.92,5640.7 9252.07,5640.5C9252.24,5640.27 9252.4,5640.03 9252.55,5639.79L9252.61,5639.68C9252.79,5639.39 9252.95,5639.09 9253.11,5638.78C9253.38,5638.24 9253.64,5637.67 9253.93,5637.03C9254.15,5636.52 9254.35,5635.98 9254.53,5635.43C9254.78,5634.68 9255,5633.9 9255.2,5633.09C9255.26,5632.83 9255.32,5632.56 9255.38,5632.29C9255.4,5632.18 9255.43,5632.06 9255.45,5631.95C9256.07,5628.9 9256.34,5625.5 9256.47,5621.83C9256.49,5620.91 9256.49,5619.99 9256.49,5619.07L9256.49,5618.52C9256.49,5616.67 9256.48,5614.82 9256.49,5613L9256.5,5613C9256.29,5569.19 9255.9,5491.84 9255.87,5485.62C9255.41,5485.6 9247.82,5485.53 9242.21,5485.63C9242.07,5485.63 9241.93,5485.63 9241.79,5485.63C9235.35,5485.8 9229.68,5486.33 9225.22,5488.22C9222.28,5489.55 9220.65,5490.26 9218.22,5494.39C9218.26,5484.75 9218.25,5490.78 9218.25,5480L9218.25,5480L9218.25,5480L9228.07,5480C9235.17,5479.98 9244.09,5479.95 9249.25,5479.97L9249.25,5480L9263.33,5480L9277.41,5480L9277.41,5479.97C9278.7,5479.97 9280.23,5479.97 9281.9,5479.97Z" style="fill:rgb(173,115,74);stroke:rgb(173,115,74);stroke-width:1.34px;"/>
        </g>
        <g id="É1" serif:id="É" transform="matrix(0.571408,0,0,0.571408,-4781.33,-3051.37)">
            <path d="M9413.41,5480.02L9413.41,5479.97C9421.67,5479.94 9439.61,5480.03 9444.23,5480.01C9444.31,5480 9444.36,5480 9444.37,5480C9444.37,5480 9444.38,5480 9444.38,5480L9444.42,5480C9444.41,5490.78 9444.4,5484.75 9444.44,5494.39C9442.01,5490.26 9440.38,5489.55 9437.44,5488.22C9433.83,5486.69 9429.42,5486.05 9424.45,5485.78L9384.4,5485.78L9384.4,5486.01C9384.4,5486.64 9384.39,5487.26 9384.39,5487.89L9384.38,5489.75L9384.37,5540.63C9391.2,5540.64 9398,5540.53 9402.89,5538.66C9406.2,5537.23 9408.44,5536.47 9410.37,5532.02C9410.36,5542.8 9410.35,5545.4 9410.39,5555.04C9407.97,5550.91 9406.33,5550.2 9403.4,5548.87C9398.37,5546.74 9391.82,5546.34 9384.37,5546.24L9384.36,5559.3L9384.36,5628.71L9384.35,5628.71C9384.35,5633.25 9384.34,5637.78 9384.34,5641.19L9426.59,5641.19C9431.51,5640.91 9435.88,5640.27 9439.47,5638.75C9442.4,5637.42 9444.04,5636.72 9446.46,5632.58C9446.42,5642.22 9446.43,5636.19 9446.44,5646.97C9446.33,5646.97 9446.22,5646.97 9446.09,5646.97L9446.39,5647.04L9428.71,5646.99C9423.72,5647.01 9418.78,5647.01 9415.43,5647L9415.43,5646.96L9411.31,5646.95L9375.21,5646.95L9361.94,5646.98L9361.94,5646.94L9361.94,5646.94C9361.94,5646.65 9361.94,5646.36 9361.94,5646.06L9361.94,5645.9C9361.94,5645.34 9361.94,5644.77 9361.93,5644.03L9361.93,5644.03L9361.93,5643.99C9366.06,5641.57 9366.77,5639.93 9368.1,5637C9370.09,5632.3 9370.57,5626.26 9370.71,5619.4C9370.71,5618.98 9370.72,5618.56 9370.72,5618.13L9370.72,5549.84C9370.62,5525.79 9370.46,5503.72 9370.4,5494.97C9370.12,5492.2 9369.63,5489.64 9368.8,5487.46C9368.05,5485.72 9367.48,5484.27 9366.46,5483.01C9365,5481.51 9363.02,5480.32 9360.37,5480C9360.93,5480 9361.55,5480.01 9362.22,5480.01C9362.2,5480 9362.18,5480 9362.17,5479.99C9366.18,5479.97 9372.86,5480.03 9384.41,5480.01L9384.41,5480.02L9413.41,5480.02Z" style="fill:rgb(173,115,74);stroke:rgb(173,115,74);stroke-width:1.34px;"/>
        </g>
        <g id="É2" serif:id="É" transform="matrix(0.571408,0,0,0.571408,-4620.19,-3051.37)">
            <path d="M9413.41,5480.02L9413.41,5479.97C9421.67,5479.94 9439.61,5480.03 9444.23,5480.01C9444.31,5480 9444.36,5480 9444.37,5480C9444.37,5480 9444.38,5480 9444.38,5480L9444.42,5480C9444.41,5490.78 9444.4,5484.75 9444.44,5494.39C9442.01,5490.26 9440.38,5489.55 9437.44,5488.22C9433.83,5486.69 9429.42,5486.05 9424.45,5485.78L9384.4,5485.78L9384.4,5486.01C9384.4,5486.64 9384.39,5487.26 9384.39,5487.89L9384.38,5489.75L9384.37,5540.63C9391.2,5540.64 9398,5540.53 9402.89,5538.66C9406.2,5537.23 9408.44,5536.47 9410.37,5532.02C9410.36,5542.8 9410.35,5545.4 9410.39,5555.04C9407.97,5550.91 9406.33,5550.2 9403.4,5548.87C9398.37,5546.74 9391.82,5546.34 9384.37,5546.24L9384.36,5559.3L9384.36,5628.71L9384.35,5628.71C9384.35,5633.25 9384.34,5637.78 9384.34,5641.19L9426.59,5641.19C9431.51,5640.91 9435.88,5640.27 9439.47,5638.75C9442.4,5637.42 9444.04,5636.72 9446.46,5632.58C9446.42,5642.22 9446.43,5636.19 9446.44,5646.97C9446.33,5646.97 9446.22,5646.97 9446.09,5646.97L9446.39,5647.04L9428.71,5646.99C9423.72,5647.01 9418.78,5647.01 9415.43,5647L9415.43,5646.96L9411.31,5646.95L9375.21,5646.95L9361.94,5646.98L9361.94,5646.94L9361.94,5646.94C9361.94,5646.65 9361.94,5646.36 9361.94,5646.06L9361.94,5645.9C9361.94,5645.34 9361.94,5644.77 9361.93,5644.03L9361.93,5644.03L9361.93,5643.99C9366.06,5641.57 9366.77,5639.93 9368.1,5637C9370.09,5632.3 9370.57,5626.26 9370.71,5619.4C9370.71,5618.98 9370.72,5618.56 9370.72,5618.13L9370.72,5549.84C9370.62,5525.79 9370.46,5503.72 9370.4,5494.97C9370.12,5492.2 9369.63,5489.64 9368.8,5487.46C9368.05,5485.72 9367.48,5484.27 9366.46,5483.01C9365,5481.51 9363.02,5480.32 9360.37,5480C9360.93,5480 9361.55,5480.01 9362.22,5480.01C9362.2,5480 9362.18,5480 9362.17,5479.99C9366.18,5479.97 9372.86,5480.03 9384.41,5480.01L9384.41,5480.02L9413.41,5480.02Z" style="fill:rgb(173,115,74);stroke:rgb(173,115,74);stroke-width:1.34px;"/>
        </g>
        <g transform="matrix(0.571408,0,0,0.571408,-5015.6,-3051.37)">
            <path d="M9917.54,5482.68C9916.12,5481.34 9914.25,5480.29 9911.78,5480C9912.35,5480 9912.97,5480.01 9913.64,5480.01C9913.62,5480 9913.6,5480 9913.59,5479.99C9917.6,5479.97 9924.28,5480.03 9935.83,5480.01L9935.83,5480.04C9938.84,5480.04 9941.83,5480.03 9944.6,5480.03C9940.47,5482.45 9939.76,5484.09 9938.44,5487.02C9936.3,5492.07 9935.9,5498.67 9935.8,5506.17L9935.78,5628.71L9935.77,5628.71C9935.77,5633.25 9935.76,5637.78 9935.76,5641.19L9978.01,5641.19C9982.93,5640.91 9987.3,5640.27 9990.89,5638.75C9993.82,5637.42 9995.45,5636.72 9997.88,5632.58C9997.84,5642.22 9997.85,5636.19 9997.86,5646.97C9997.75,5646.97 9997.64,5646.97 9997.51,5646.97L9997.81,5647.04L9980.13,5646.99C9975.14,5647.01 9970.2,5647.01 9966.85,5647L9966.85,5646.96L9962.73,5646.95L9926.63,5646.95L9913.36,5646.98L9913.36,5645.9C9913.36,5645.34 9913.36,5644.77 9913.35,5644.03L9913.35,5643.99C9917.48,5641.57 9918.19,5639.93 9919.52,5637C9921.51,5632.3 9921.99,5626.26 9922.13,5619.4C9922.13,5618.98 9922.14,5618.56 9922.14,5618.13L9922.14,5549.84C9922.04,5525.82 9921.88,5503.77 9921.82,5495C9921.54,5492.24 9921.05,5489.69 9920.23,5487.53C9919.39,5485.6 9918.78,5484.03 9917.54,5482.68Z" style="fill:rgb(173,115,74);stroke:rgb(173,115,74);stroke-width:1.34px;"/>
        </g>
        <g transform="matrix(0.571408,0,0,0.571408,-5596.15,-3051.37)">
            <path d="M11619.9,5480.02C11619.9,5480.01 11619.8,5480.01 11619.8,5480C11619.8,5480 11634.1,5479.92 11639.8,5479.97L11639.8,5480.03L11639.9,5480.02L11687.8,5627.58C11689.1,5630.9 11690.4,5633.92 11691.4,5636.53C11692.8,5639.84 11693.6,5642.07 11698,5644C11698,5644.29 11698,5644.62 11698,5645L11698,5645L11698,5646.27C11698,5646.5 11698,5646.75 11698,5647L11695.5,5647L11667.2,5647L11667.2,5646.98L11667,5646.98C11667,5645.98 11667,5645.24 11667,5644.03C11671.1,5641.6 11671.8,5639.97 11673.2,5637.03C11674.2,5634.57 11674.4,5632.13 11674,5629.32L11665.1,5602.1L11662.4,5594L11610,5594L11597.9,5630.75C11597.5,5632.86 11597.3,5634.82 11597.4,5636.61C11597.6,5640.91 11599.5,5642.15 11604,5644.08C11604,5644.8 11604,5645.82 11604,5647.08L11581,5647.06C11581,5646.06 11581,5645.32 11581,5644.1C11586.2,5641.56 11590,5634.82 11592.8,5627.76L11633.3,5504.08L11630.7,5495.95C11628.5,5491.31 11626.2,5487.03 11623.3,5484.2C11620.7,5481.76 11619.1,5480.02 11614.2,5480.07C11616.4,5480.05 11618.2,5480.03 11619.9,5480.02ZM11938.7,5501.85C11938.6,5496.48 11938.3,5491.38 11936.8,5487.49C11935.3,5484.18 11934.6,5481.94 11930.1,5480.01C11934.1,5480 11949.6,5480.01 11961.1,5479.99C11957,5482.41 11956.3,5484.05 11955,5486.98C11952.4,5493.04 11952.4,5501.3 11952.3,5510.7L11952.3,5511L11952.3,5511L11952.3,5515.95L11952.3,5516.61C11952.4,5548.67 11952.3,5580.73 11952.4,5612.8L11952.4,5613L11952.4,5613C11952.4,5614.73 11952.4,5616.49 11952.4,5618.25C11952.4,5618.94 11952.4,5619.61 11952.4,5620.28C11952.4,5626.32 11952.7,5632.18 11954.4,5636.53C11955.8,5639.84 11956.6,5642.07 11961,5644C11961,5644.73 11961,5645.74 11961,5647L11930,5646.98C11930,5645.98 11930,5645.24 11930,5644.03C11934.1,5641.6 11934.8,5639.97 11936.2,5637.03C11937.9,5633.02 11938.5,5628.03 11938.7,5622.39L11938.7,5511L11938.7,5511C11938.7,5507.84 11938.7,5504.79 11938.7,5501.85ZM11650.2,5556.08L11636.3,5513.37L11611.3,5590L11661.1,5590L11650.2,5556.08Z" style="fill:rgb(173,115,74);stroke:rgb(173,115,74);stroke-width:1.34px;"/>
        </g>
        <g transform="matrix(0.571408,0,0,0.571408,-5596.15,-3051.37)">
            <path d="M11759.8,5478.69C11759.4,5478.45 11758.9,5478.21 11758.4,5477.98C11761.8,5477.97 11767.2,5478.01 11775.9,5478.01L11775.9,5478L11809.3,5478C11832.1,5479.37 11856,5487.19 11855.9,5514.89C11855.9,5530.94 11841.1,5542.32 11825,5547.86L11859.4,5635.81C11859.5,5636.1 11859.7,5636.38 11859.8,5636.65C11860.7,5638.44 11861.1,5639.2 11861.6,5639.74C11863.2,5641.94 11866.2,5644.05 11869,5644C11869,5644.73 11869,5645.74 11869,5647C11863.2,5647 11856.1,5647.03 11853.2,5646.98C11848.6,5646.93 11848.5,5644.8 11843.8,5634.25L11810.7,5549.74L11780.4,5549.66L11780.4,5585.8L11780.4,5623.49C11780.6,5628.37 11781,5632.96 11782.4,5636.53C11783.8,5639.84 11784.6,5642.07 11789,5644C11789,5644.73 11789,5645.74 11789,5647L11758,5646.98C11758,5645.98 11758,5645.24 11758,5644.03C11762.1,5641.6 11762.8,5639.97 11764.2,5637.03C11766.1,5632.38 11766.6,5626.41 11766.8,5619.63L11766.8,5504.73L11766.8,5504.73L11766.8,5495.51C11766.4,5489.29 11764.6,5483.51 11759.8,5478.69ZM11784.3,5481.91C11782,5485.56 11780.8,5490.89 11780.6,5497.55C11780.6,5499.91 11780.6,5502.26 11780.6,5504.47L11780.5,5545.06C11780.5,5545.06 11792.5,5544.95 11808.9,5545.06C11828.4,5545.7 11842.3,5530.78 11842.2,5512.89C11842.2,5503.29 11836.5,5493.38 11830.1,5488.4C11823.1,5482.92 11815.9,5482.43 11809.3,5481.91L11784.3,5481.91Z" style="fill:rgb(173,115,74);stroke:rgb(173,115,74);stroke-width:1.34px;"/>
        </g>
    </g>
    <g transform="matrix(0.623947,0,0,0.623947,-6836.7,-3028.36)">
        <path d="M12054.5,5480C12056.2,5480 12057.3,5479.99 12057.3,5479.99L12119.5,5606.59L12119.5,5577.82C12119.3,5550.49 12119.4,5530.64 12119.5,5515.44L12119.5,5510.89L12119.5,5510.89C12119.5,5505.97 12119.5,5501.57 12119.5,5497.57C12119.3,5493.81 12118.8,5490.33 12117.7,5487.49C12116.3,5484.19 12115.5,5481.95 12111.1,5480.02C12121.9,5480.03 12124.5,5480.03 12134.1,5479.99C12130,5482.42 12129.3,5484.05 12127.9,5486.99C12125.5,5492.65 12125.3,5500.24 12125.3,5508.89C12125.3,5546.36 12125.3,5617.98 12125.3,5617.98L12131.2,5646.28L12123.3,5646.27L12113,5624.78L12113,5624.8L12047.2,5490.58C12045.8,5496.22 12045.8,5503.22 12045.7,5510.98L12045.7,5510.98C12045.7,5514.56 12045.7,5518.39 12045.7,5522.4L12045.7,5621.92C12045.8,5627.4 12046.1,5632.64 12047.6,5636.61C12049.1,5639.91 12049.8,5642.15 12054.3,5644.08C12054.3,5644.8 12054.3,5645.82 12054.3,5647.08L12032.9,5647.06C12032.6,5647.06 12032.5,5647.07 12032.5,5647.07C12032.5,5647.07 12032.5,5647.06 12032.5,5647.06L12031.3,5647.06C12031.3,5646.06 12031.3,5645.32 12031.3,5644.1C12035.4,5641.68 12036.1,5640.04 12037.4,5637.11C12039.1,5633.22 12039.7,5628.43 12039.9,5623.01L12039.9,5496.49C12039.7,5493.14 12039.2,5490.05 12038.2,5487.48C12036.8,5484.17 12036,5481.93 12031.6,5480.01C12033,5480.01 12034.2,5480.01 12035.4,5480.01C12035.4,5480 12035.4,5480 12035.4,5479.99C12035.7,5480 12036.2,5480 12036.7,5480.01C12043.5,5480.01 12046.7,5480.01 12054.6,5479.98L12054.5,5480ZM11475.9,5480.04L11476,5480L11497.4,5480C11500.2,5480 11503,5479.99 11505.7,5479.99C11501.6,5482.41 11500.9,5484.05 11499.6,5486.98C11497.2,5492.67 11497,5500.31 11496.9,5509L11496.9,5509.01L11496.8,5612.19C11496.8,5612.27 11496.8,5612.36 11496.8,5612.45L11496.8,5613L11496.8,5613C11496.9,5621.38 11496.5,5630.44 11498.8,5636.53C11500.2,5639.84 11501,5642.07 11505.4,5644C11505.4,5644.73 11505.4,5645.74 11505.4,5647L11474.4,5646.98C11474.4,5645.98 11474.4,5645.24 11474.4,5644.03C11478.5,5641.6 11479.3,5639.97 11480.6,5637.03C11480.8,5636.47 11481,5635.89 11481.2,5635.29C11481.5,5634.4 11481.8,5633.49 11482,5632.54C11482.5,5630.24 11482.8,5627.72 11483,5625.03L11483,5500.8C11482.5,5493.82 11481.4,5488.5 11479.9,5484.95L11440.5,5627.67L11444.9,5647.01L11430.9,5646.99L11397.7,5500.25C11397.6,5502.03 11397.6,5503.87 11397.5,5505.78L11397.4,5564.77L11397.4,5623.65C11397.6,5628.5 11398,5633.06 11399.4,5636.61C11400.8,5639.91 11401.5,5642.15 11406,5644.08C11406,5644.8 11406,5645.82 11406,5647.08L11383,5647.06C11383,5646.06 11383,5645.32 11383,5644.1C11387.1,5641.68 11387.8,5640.04 11389.1,5637.11C11390.9,5633.02 11391.5,5627.93 11391.7,5622.15L11391.7,5496.53C11391.4,5493.16 11390.9,5490.06 11390,5487.48C11388.5,5484.17 11387.8,5481.93 11383.3,5480.01L11385.6,5480.01L11385.6,5480L11400.9,5480C11402.5,5480 11404.2,5479.99 11406.3,5479.98L11406.3,5480L11407.4,5480L11437.9,5615.32L11475.4,5479.88L11475.9,5480.04ZM11614.9,5480.02C11614.9,5480.01 11614.8,5480.01 11614.8,5480C11614.8,5480 11629.1,5479.92 11634.8,5479.97L11634.8,5480.03L11634.9,5480.02L11682.8,5627.58C11684.1,5630.9 11685.4,5633.92 11686.4,5636.53C11687.8,5639.84 11688.6,5642.07 11693,5644C11693,5644.29 11693,5644.62 11693,5645L11693,5645L11693,5646.27C11693,5646.5 11693,5646.75 11693,5647L11690.5,5647L11662.2,5647L11662.2,5646.98L11662,5646.98C11662,5645.98 11662,5645.24 11662,5644.03C11666.1,5641.6 11666.8,5639.97 11668.2,5637.03C11669.2,5634.57 11669.4,5632.13 11669,5629.32L11660.1,5602.1L11657.4,5594L11605,5594L11592.9,5630.75C11592.5,5632.86 11592.3,5634.82 11592.4,5636.61C11592.6,5640.91 11594.5,5642.15 11599,5644.08C11599,5644.8 11599,5645.82 11599,5647.08L11576,5647.06C11576,5646.06 11576,5645.32 11576,5644.1C11581.2,5641.56 11585,5634.82 11587.8,5627.76L11628.3,5504.08L11625.7,5495.95C11623.5,5491.31 11621.2,5487.03 11618.3,5484.2C11615.7,5481.76 11614.1,5480.02 11609.2,5480.07C11611.4,5480.05 11613.2,5480.03 11614.9,5480.02ZM11938.7,5501.85C11938.6,5496.48 11938.3,5491.38 11936.8,5487.49C11935.3,5484.18 11934.6,5481.94 11930.1,5480.01C11934.1,5480 11949.6,5480.01 11961.1,5479.99C11957,5482.41 11956.3,5484.05 11955,5486.98C11952.4,5493.04 11952.4,5501.3 11952.3,5510.7L11952.3,5511L11952.3,5511L11952.3,5515.95L11952.3,5516.61C11952.4,5548.67 11952.3,5580.73 11952.4,5612.8L11952.4,5613L11952.4,5613C11952.4,5614.73 11952.4,5616.49 11952.4,5618.25C11952.4,5618.94 11952.4,5619.61 11952.4,5620.28C11952.4,5626.32 11952.7,5632.18 11954.4,5636.53C11955.8,5639.84 11956.6,5642.07 11961,5644C11961,5644.73 11961,5645.74 11961,5647L11930,5646.98C11930,5645.98 11930,5645.24 11930,5644.03C11934.1,5641.6 11934.8,5639.97 11936.2,5637.03C11937.9,5633.02 11938.5,5628.03 11938.7,5622.39L11938.7,5511L11938.7,5511C11938.7,5507.84 11938.7,5504.79 11938.7,5501.85ZM11759.8,5478.69C11759.4,5478.45 11758.9,5478.21 11758.4,5477.98C11761.8,5477.97 11767.2,5478.01 11775.9,5478.01L11775.9,5478L11809.3,5478C11832.1,5479.37 11856,5487.19 11855.9,5514.89C11855.9,5530.94 11841.1,5542.32 11825,5547.86L11859.4,5635.81C11859.5,5636.1 11859.7,5636.38 11859.8,5636.65C11860.7,5638.44 11861.1,5639.2 11861.6,5639.74C11863.2,5641.94 11866.2,5644.05 11869,5644C11869,5644.73 11869,5645.74 11869,5647C11863.2,5647 11856.1,5647.03 11853.2,5646.98C11848.6,5646.93 11848.5,5644.8 11843.8,5634.25L11810.7,5549.74L11780.4,5549.66L11780.4,5585.8L11780.4,5623.49C11780.6,5628.37 11781,5632.96 11782.4,5636.53C11783.8,5639.84 11784.6,5642.07 11789,5644C11789,5644.73 11789,5645.74 11789,5647L11758,5646.98C11758,5645.98 11758,5645.24 11758,5644.03C11762.1,5641.6 11762.8,5639.97 11764.2,5637.03C11766.1,5632.38 11766.6,5626.41 11766.8,5619.63L11766.8,5504.73L11766.8,5504.73L11766.8,5495.51C11766.4,5489.29 11764.6,5483.51 11759.8,5478.69ZM11645.2,5556.08L11631.3,5513.37L11606.3,5590L11656.1,5590L11645.2,5556.08ZM11784.3,5481.91C11782,5485.56 11780.8,5490.89 11780.6,5497.55C11780.6,5499.91 11780.6,5502.26 11780.6,5504.47L11780.5,5545.06C11780.5,5545.06 11792.5,5544.95 11808.9,5545.06C11828.4,5545.7 11842.3,5530.78 11842.2,5512.89C11842.2,5503.29 11836.5,5493.38 11830.1,5488.4C11823.1,5482.92 11815.9,5482.43 11809.3,5481.91L11784.3,5481.91ZM11947.1,5468.71C11950.4,5459.78 11956.6,5452.02 11964.6,5445L11938.6,5444.8C11943.4,5451.64 11945.8,5459.67 11946.2,5468.72L11947.1,5468.71Z" style="fill:rgb(173,115,74);stroke:rgb(173,115,74);stroke-width:1.34px;"/>
    </g>
    <g transform="matrix(1,0,0,1,-460,362.547)">
        <g transform="matrix(0.483094,0,0,0.211698,-4150.38,-571.971)">
            <path d="M9916.17,3740.79C9917.03,3739.7 9917.93,3739.16 9918.89,3739.16C9919.84,3739.16 9920.72,3739.7 9921.53,3740.79C9922.34,3741.87 9922.98,3743.34 9923.45,3745.18C9923.93,3747.03 9924.17,3749.04 9924.17,3751.21C9924.17,3752.95 9924.02,3754.52 9923.74,3755.93C9923.45,3757.34 9923.07,3758.59 9922.6,3759.68C9922.12,3760.76 9921.57,3761.63 9920.96,3762.28C9920.34,3762.93 9919.65,3763.26 9918.89,3763.26C9917.46,3763.26 9916.22,3762.12 9915.18,3759.84C9914.13,3757.56 9913.6,3754.68 9913.6,3751.21C9913.6,3749.04 9913.84,3747.03 9914.32,3745.18C9914.8,3743.34 9915.41,3741.87 9916.17,3740.79Z" style="fill:rgb(173,115,74);fill-rule:nonzero;stroke:rgb(173,115,74);stroke-width:3.35px;stroke-linecap:butt;stroke-linejoin:miter;stroke-miterlimit:3;"/>
        </g>
        <g transform="matrix(0.418372,-0.241547,0.105849,0.183336,-3872.64,2093.52)">
            <path d="M10553.3,3790.29C10559.8,3775.53 10567.6,3768.15 10576.7,3768.15C10585.9,3768.15 10593.6,3775.47 10600.1,3790.13C10606.5,3804.79 10609.7,3822.54 10609.7,3843.38C10609.7,3864.23 10606.5,3881.98 10600.1,3896.64C10593.6,3911.29 10585.9,3918.62 10576.7,3918.62C10567.6,3918.62 10559.8,3911.29 10553.4,3896.64C10547,3881.98 10543.8,3864.23 10543.8,3843.38C10543.8,3822.54 10546.9,3804.84 10553.3,3790.29ZM10588,3776.94C10584.9,3772.82 10581.1,3770.75 10576.8,3770.75C10572.5,3770.75 10568.7,3772.82 10565.5,3776.94C10562.3,3781.07 10559.9,3786.71 10558.1,3793.88C10556.3,3801.04 10555,3808.7 10554.2,3816.84C10553.4,3824.98 10553,3833.83 10553,3843.38C10553,3852.94 10553.4,3861.79 10554.2,3869.93C10555,3878.07 10556.3,3885.73 10558.1,3892.89C10559.9,3900.06 10562.3,3905.7 10565.5,3909.83C10568.7,3913.95 10572.5,3916.02 10576.8,3916.02C10581.1,3916.02 10584.9,3913.95 10588.1,3909.83C10591.3,3905.7 10593.7,3900.06 10595.4,3892.89C10597.1,3885.73 10598.4,3878.07 10599.2,3869.93C10600,3861.79 10600.4,3852.94 10600.4,3843.38C10600.4,3833.83 10600,3824.98 10599.2,3816.84C10598.4,3808.7 10597.1,3801.04 10595.4,3793.88C10593.7,3786.71 10591.2,3781.07 10588,3776.94Z" style="fill:rgb(173,115,74);fill-rule:nonzero;stroke:rgb(173,115,74);stroke-width:3.35px;stroke-linecap:butt;stroke-linejoin:miter;stroke-miterlimit:3;"/>
        </g>
        <g transform="matrix(0.407494,-0.259478,0.113707,0.178569,-3733.57,2301.5)">
            <path d="M10553.3,3790.29C10559.8,3775.53 10567.6,3768.15 10576.7,3768.15C10585.9,3768.15 10593.6,3775.47 10600.1,3790.13C10606.5,3804.79 10609.7,3822.54 10609.7,3843.38C10609.7,3864.23 10606.5,3881.98 10600.1,3896.64C10593.6,3911.29 10585.9,3918.62 10576.7,3918.62C10567.6,3918.62 10559.8,3911.29 10553.4,3896.64C10547,3881.98 10543.8,3864.23 10543.8,3843.38C10543.8,3822.54 10546.9,3804.84 10553.3,3790.29ZM10588,3776.94C10584.9,3772.82 10581.1,3770.75 10576.8,3770.75C10572.5,3770.75 10568.7,3772.82 10565.5,3776.94C10562.3,3781.07 10559.9,3786.71 10558.1,3793.88C10556.3,3801.04 10555,3808.7 10554.2,3816.84C10553.4,3824.98 10553,3833.83 10553,3843.38C10553,3852.94 10553.4,3861.79 10554.2,3869.93C10555,3878.07 10556.3,3885.73 10558.1,3892.89C10559.9,3900.06 10562.3,3905.7 10565.5,3909.83C10568.7,3913.95 10572.5,3916.02 10576.8,3916.02C10581.1,3916.02 10584.9,3913.95 10588.1,3909.83C10591.3,3905.7 10593.7,3900.06 10595.4,3892.89C10597.1,3885.73 10598.4,3878.07 10599.2,3869.93C10600,3861.79 10600.4,3852.94 10600.4,3843.38C10600.4,3833.83 10600,3824.98 10599.2,3816.84C10598.4,3808.7 10597.1,3801.04 10595.4,3793.88C10593.7,3786.71 10591.2,3781.07 10588,3776.94Z" style="fill:rgb(173,115,74);fill-rule:nonzero;stroke:rgb(173,115,74);stroke-width:3.35px;stroke-linecap:butt;stroke-linejoin:miter;stroke-miterlimit:3;"/>
        </g>
        <g transform="matrix(0.571909,0,0,0.223243,-5100.87,-612.367)">
            <path d="M10672.1,3879.83C10674,3881.86 10675.8,3883.64 10673.7,3884.83C10671.7,3886.03 10663.6,3911.05 10665.9,3931.65C10667.5,3940.34 10670.6,3943.48 10675.1,3941.1C10679.1,3938.71 10683.7,3931.54 10688.9,3919.6C10693.9,3908.74 10696.6,3902.07 10701.2,3899.57C10705.7,3897.07 10711.4,3898.21 10714,3902.99C10716.7,3907.76 10718.7,3914.01 10719.9,3921.72C10721.2,3929.42 10721.3,3938.27 10720.1,3948.26C10718.9,3958.25 10716.5,3967.04 10713,3974.64C10707.8,3985.93 10701.3,3992.12 10693.6,3993.21C10682.9,3995.16 10673.5,3986.69 10665.5,3967.8C10663.8,3963.89 10663.6,3960.42 10664.9,3957.38C10666.1,3954.56 10667.2,3954.56 10668.4,3957.38C10668.6,3958.25 10668.9,3959.23 10669.1,3960.31C10671.3,3972.25 10674.6,3980.61 10679,3985.39C10683.4,3990.17 10688.2,3992.12 10693.5,3991.25C10700.8,3989.95 10707.2,3983.65 10712.6,3972.36C10717.5,3961.72 10719.5,3950.32 10718.4,3938.16C10717.6,3928.61 10715.3,3922.64 10711.5,3920.25C10706.1,3917.43 10700.2,3922.96 10693.6,3936.86C10685.1,3955.32 10677.5,3961.29 10671.1,3954.78C10666.9,3950.43 10663.4,3942.72 10662.6,3931.65C10662.1,3922.75 10662.9,3909.81 10665.2,3900.53C10667.6,3892.38 10667.4,3891.13 10672.1,3879.83Z" style="fill:rgb(173,115,74);fill-rule:nonzero;stroke:rgb(173,115,74);stroke-width:2.88px;stroke-linecap:butt;stroke-linejoin:miter;stroke-miterlimit:3;"/>
        </g>
        <g transform="matrix(0.602119,0,0,0.195029,468.895,184.357)">
            <path d="M924.866,183.903L932.231,183.903L932.231,161.324L932.035,161.324C926.034,161.324 920.296,169.187 916.292,182.896C912.872,194.6 910.962,209.72 910.914,225.437C912.959,227.571 911.438,225.902 911.305,225.437C911.351,215.278 912.595,205.515 914.805,197.95C917.366,189.183 921.034,184.063 924.866,183.903L924.866,183.903Z" style="fill:rgb(173,115,74);fill-rule:nonzero;stroke:rgb(173,115,74);stroke-width:2.79px;stroke-linecap:butt;stroke-linejoin:miter;stroke-miterlimit:3;"/>
        </g>
        <g transform="matrix(0.570719,0,0,0.570719,-5006.2,-3081.21)">
            <path d="M10380.1,5839.13L10380.1,5839.16C10380.5,5839.56 10380.7,5840.09 10380.9,5840.73C10381.8,5844.44 10381.4,5847.46 10379.5,5849.79C10377.6,5852.13 10374.7,5853.3 10370.7,5853.3C10368.1,5853.3 10365.9,5852.97 10364,5852.33C10362.1,5851.68 10360.6,5850.82 10359.5,5849.73C10358.4,5848.64 10357.5,5847.21 10356.8,5845.44C10356.2,5843.67 10355.7,5841.9 10355.5,5840.13C10355.3,5838.35 10355.1,5836.26 10355.1,5833.84L10355.1,5799.17L10351.4,5799.17L10351.4,5796.2L10355.1,5796.2L10355.1,5785.52C10355.1,5783.59 10354.7,5781.93 10353.9,5780.57C10353,5779.19 10351.8,5778.35 10350.1,5778.03C10350.4,5778.03 10351.1,5778.05 10352.2,5778.09C10353.4,5778.13 10354.2,5778.15 10354.7,5778.15C10355.1,5778.15 10355.9,5778.11 10356.8,5778.03C10357.8,5777.95 10358.6,5777.85 10359.2,5777.73C10359.8,5777.61 10360.5,5777.44 10361.2,5777.24C10361.9,5777.04 10362.5,5776.78 10363.1,5776.46L10363.1,5789.73C10362.3,5793.78 10359.9,5795.78 10356.1,5796.23L10363.1,5796.2L10378.1,5796.2L10378.1,5799.17L10363.1,5799.17L10363.1,5833.84C10363.1,5834.17 10363.1,5834.91 10363.1,5836.08C10363,5837.25 10363,5838.13 10363.1,5838.74C10363.1,5839.34 10363.1,5840.25 10363.2,5841.45C10363.2,5842.66 10363.3,5843.61 10363.5,5844.29C10363.6,5844.98 10363.8,5845.81 10364.1,5846.77C10364.3,5847.74 10364.7,5848.52 10365.1,5849.13C10365.5,5849.73 10366.1,5850.32 10366.7,5850.88C10367.3,5851.44 10368,5851.86 10368.9,5852.15C10369.8,5852.43 10370.8,5852.57 10371.8,5852.57C10373.5,5852.57 10375,5852.13 10376.2,5851.24C10377.5,5850.36 10378.2,5849.15 10378.4,5847.62C10378.5,5846.77 10378.3,5845.82 10377.8,5844.78C10376.5,5844.9 10375,5844.05 10374.2,5842.56C10373.2,5840.85 10373.5,5838.86 10374.7,5837.85C10374.9,5837.61 10375.1,5837.41 10375.4,5837.26C10377,5836.4 10379.1,5837.24 10380.1,5839.13Z" style="fill:rgb(173,115,74);fill-rule:nonzero;stroke:rgb(173,115,74);stroke-width:2.19px;stroke-linecap:butt;stroke-linejoin:miter;stroke-miterlimit:3;"/>
        </g>
        <g transform="matrix(0.551391,1.55056e-17,-5.89904e-17,0.628604,-4695.1,-3443.28)">
            <ellipse cx="10384" cy="5824.5" rx="3" ry="3.5" style="fill:rgb(173,115,74);stroke:rgb(173,115,74);stroke-width:2.11px;stroke-linecap:butt;stroke-linejoin:miter;stroke-miterlimit:3;"/>
        </g>
        <g transform="matrix(0.570719,0,0,0.570719,-5006.2,-3081.21)">
            <path d="M9836.73,5809.54C9834.35,5801.58 9825.02,5799.32 9820.17,5799.32C9816.55,5799.32 9807.89,5801.24 9804.4,5806.9C9802.8,5809.5 9801.83,5812.4 9801.14,5815.42C9800.46,5818.44 9800.11,5821.72 9800.11,5825.27C9800.11,5830.74 9800.94,5835.41 9802.59,5839.28C9804.24,5843.15 9806.38,5845.99 9809,5847.8C9811.61,5849.61 9814.55,5850.8 9817.81,5851.36C9821.08,5851.93 9824.3,5851.77 9827.48,5850.88C9830.66,5849.99 9833.66,5848.6 9836.48,5846.71C9839.3,5844.82 9841.51,5842.5 9843.12,5839.76L9843.73,5840.37C9841.47,5843.99 9838.59,5846.87 9835.09,5849.01C9831.59,5851.14 9827.96,5852.43 9824.22,5852.87C9820.47,5853.32 9816.67,5853.03 9812.8,5852.03C9808.93,5851.02 9805.49,5849.37 9802.47,5847.07C9799.45,5844.78 9796.99,5841.74 9795.1,5837.95C9793.21,5834.17 9792.26,5829.94 9792.26,5825.27C9792.26,5817.53 9794.98,5810.95 9800.42,5805.51C9805.85,5800.08 9812.44,5797.36 9820.17,5797.36C9823.47,5797.36 9826.77,5797.88 9830.08,5798.93C9833.38,5799.98 9836.39,5801.23 9839.13,5803.7C9841.91,5806.34 9842.86,5809.66 9843.32,5811.28C9843.89,5813.38 9843.06,5815.27 9841.12,5815.78C9839.6,5816.19 9838.01,5815.48 9837.14,5814.13C9836.79,5813.7 9836.52,5813.18 9836.37,5812.6C9836.07,5811.51 9836.23,5810.41 9836.73,5809.54Z" style="fill:rgb(173,115,74);fill-rule:nonzero;stroke:rgb(173,115,74);stroke-width:3.29px;stroke-linecap:butt;stroke-linejoin:miter;stroke-miterlimit:3;"/>
        </g>
        <g transform="matrix(0.570719,0,0,0.570719,-5006.2,-3081.21)">
            <path d="M9899.9,5797.92L9899.9,5849.78L9902.62,5849.78L9902.62,5852.16L9889.47,5852.16L9889.47,5849.78L9892.19,5849.78L9892.19,5803.42L9889.57,5804.51L9889.44,5802.67C9890.8,5802.49 9892.47,5802.05 9894.21,5801.36C9896.81,5800.33 9898.92,5799.02 9899.9,5797.92Z" style="fill:rgb(173,115,74);fill-rule:nonzero;stroke:rgb(173,115,74);stroke-width:2.19px;stroke-linecap:butt;stroke-linejoin:miter;stroke-miterlimit:3;"/>
        </g>
        <g transform="matrix(0.570719,0,0,0.570719,-5006.2,-3081.21)">
            <path d="M9953.55,5847.63C9953.54,5847.61 9953.54,5847.59 9953.55,5847.56L9953.55,5799.71L9950.39,5799.71L9950.39,5798.86C9957.75,5799 9962.54,5797.33 9962.54,5797.33L9962.54,5805.63C9962.87,5804.81 9964.65,5802.97 9965.64,5802.1C9970.68,5797.69 9979.12,5797.36 9980.13,5797.36C9991.8,5797.36 9995.68,5805.95 9996.68,5813.19L10000.6,5850.12L10003.8,5850.12L10003.8,5852.53L9988.41,5852.53L9988.41,5850.12L9991.59,5850.12L9991.59,5849.87C9991.59,5849.86 9991.59,5849.85 9991.59,5849.84L9987.95,5808.87C9987.82,5807.2 9986.15,5799.63 9978.26,5799.35C9976.34,5799.28 9974.45,5799.23 9972.52,5799.84C9970.58,5800.44 9968.83,5801.26 9967.26,5802.31C9965.69,5803.36 9964.38,5804.79 9963.34,5806.6C9963.02,5807.14 9962.76,5807.69 9962.54,5808.27L9962.54,5812.49L9962.56,5812.48L9962.6,5850.11L9965.79,5850.11L9965.79,5852.53L9950.36,5852.53L9950.36,5850.11L9953.55,5850.11L9953.55,5847.63Z" style="fill:rgb(173,115,74);fill-rule:nonzero;stroke:rgb(173,115,74);stroke-width:2.19px;stroke-linecap:butt;stroke-linejoin:miter;stroke-miterlimit:3;"/>
        </g>
        <g transform="matrix(0.570719,0,0,0.570719,-5006.2,-3081.21)">
            <path d="M10155,5798.55L10155,5807.78C10156.4,5804.12 10158.6,5801.47 10161.5,5799.84C10164.4,5798.18 10167.6,5797.36 10171,5797.36C10172.2,5797.36 10173.4,5797.5 10174.5,5797.78C10175.7,5798.06 10176.7,5798.51 10177.7,5799.11C10178.7,5799.71 10179.6,5800.46 10180.4,5801.35C10181.2,5802.23 10181.9,5803.28 10182.4,5804.49C10183,5805.69 10183.3,5806.98 10183.6,5808.35C10185,5804.49 10187.1,5801.69 10190,5799.95C10193,5798.22 10196.3,5797.36 10199.8,5797.36C10203.4,5797.36 10206.4,5798.57 10208.9,5800.98C10211.4,5803.4 10211.6,5806.78 10212.6,5812.13L10216.6,5850.14L10219.4,5850.14L10219.4,5852.55L10206,5852.55L10206,5850.14L10208.7,5850.14L10204.7,5810.28C10203.7,5805.53 10203,5802.41 10199.5,5800.92C10196.1,5799.43 10192.6,5799.81 10189.1,5802.07C10185.6,5804.32 10183.8,5807.59 10183.8,5811.86L10183.8,5829.09L10183.8,5850.14L10186.6,5850.14L10186.6,5852.55L10173.1,5852.55L10173.1,5850.14L10175.9,5850.14L10175.9,5822.98L10175.9,5810.28C10175.9,5805.53 10174.2,5802.41 10170.7,5800.92C10167.2,5799.43 10163.7,5799.81 10160.2,5802.07C10157,5804.14 10155.3,5807.05 10155,5810.81L10155,5850.13L10157.8,5850.13L10157.8,5852.54L10144.3,5852.54L10144.3,5850.13L10147.1,5850.13L10147.1,5801.9L10144.3,5801.9L10144.3,5800.88C10150.9,5800.2 10153.6,5799.19 10155,5798.55Z" style="fill:rgb(173,115,74);fill-rule:nonzero;stroke:rgb(173,115,74);stroke-width:2.19px;stroke-linecap:butt;stroke-linejoin:miter;stroke-miterlimit:3;"/>
        </g>
        <g transform="matrix(0.570719,0,0,0.570719,-4758.45,-3081.21)">
            <path d="M10273.8,5803.73C10274.4,5803.02 10274.9,5802.34 10275.6,5801.71C10277.6,5799.77 10279.8,5798.4 10282.3,5797.6C10284.8,5796.79 10287.4,5796.51 10290.1,5796.75C10292.8,5796.99 10295.2,5797.74 10297.4,5798.99C10299.7,5800.24 10301.5,5802.11 10302.9,5804.61C10304.4,5807.1 10305.1,5810 10305.1,5813.31L10305.1,5845.2C10305.1,5847.13 10305.5,5848.77 10306.4,5850.09C10307.2,5851.42 10308.5,5852.25 10310.2,5852.57L10302.8,5852.57C10299,5852.57 10297.1,5850.11 10297.1,5845.2L10297.1,5842.42C10295.7,5846.13 10293.4,5848.89 10290.3,5850.7C10287.2,5852.51 10283.7,5853.42 10279.9,5853.42C10273.9,5853.42 10264,5850.27 10261.4,5840.19C10258.7,5829.15 10267.7,5823.06 10275.3,5819.37C10279.5,5817.31 10287.6,5815.47 10296.9,5814.87C10297.5,5810.56 10295.6,5804.16 10293.9,5802.07C10292.2,5799.98 10290.3,5798.75 10288.1,5798.39C10286,5798.02 10283.9,5798.16 10281.8,5798.81C10279.7,5799.45 10278,5800.8 10276.5,5802.86C10276,5803.65 10275.6,5804.5 10275.2,5805.4C10275.3,5805.4 10275.3,5805.41 10275.3,5805.42C10277,5805.82 10277.9,5807.86 10277.4,5809.97C10276.9,5812.09 10275.2,5814 10273.1,5812.95C10269.3,5810.65 10272.1,5806.42 10273.8,5803.73ZM10297.1,5836.49C10297.2,5830.94 10297.2,5819.57 10297.2,5817.06C10289.1,5817.78 10285.6,5818.28 10279,5821.31C10272.2,5823.75 10269,5829.01 10269,5836.5C10269,5845.06 10273.8,5851 10282.1,5851C10286.5,5851 10292,5848.25 10293.5,5845.92C10296.1,5842.38 10297.1,5841.17 10297.1,5838.19L10297.1,5836.49Z" style="fill:rgb(173,115,74);stroke:rgb(173,115,74);stroke-width:2.19px;stroke-linecap:butt;stroke-linejoin:miter;stroke-miterlimit:3;"/>
        </g>
        <g transform="matrix(0.570719,0,0,0.570719,-5006.2,-3081.21)">
            <path d="M10798.9,5796.33L10799.1,5796.33L10799.1,5818.44L10799.3,5817.35C10800.2,5811.65 10805,5806.09 10808.2,5803.08C10811.3,5800.26 10816.9,5796.67 10821.9,5796.67C10829,5796.67 10834.9,5799.29 10839.8,5803.16C10844.7,5807.02 10847.7,5811.69 10848.9,5817.17C10850.1,5822.65 10850.2,5828.12 10849.1,5833.6C10848.1,5839.08 10845.2,5843.75 10840.6,5847.62C10835.9,5851.48 10830.2,5853.42 10823.3,5853.42C10811.1,5853.42 10803.1,5849.79 10799.3,5842.54L10799.1,5842.86L10799.1,5881.96L10801.8,5881.96L10801.8,5884.38L10788.7,5884.38L10788.7,5881.96L10791.4,5881.96L10791.4,5798.74L10788.7,5798.74L10788.7,5798.01C10789.9,5798.28 10791.8,5798.29 10793.8,5797.98C10796,5797.64 10798.9,5796.33 10798.9,5796.33ZM10799.3,5826.58L10799.3,5838.19C10799.4,5841.9 10801.4,5845.06 10805.4,5847.68C10809.3,5850.3 10813.7,5851.48 10818.6,5851.24C10822.9,5851 10826.7,5849.57 10829.9,5846.95C10833.1,5844.34 10835.5,5841.11 10837,5837.29C10838.6,5833.46 10839.3,5829.35 10839.3,5824.96C10839.3,5820.57 10838.6,5816.49 10837.2,5812.7C10835.8,5808.92 10833.4,5805.76 10830.1,5803.22C10826.9,5800.68 10824.9,5799.37 10820.3,5799.29C10815.2,5799.21 10811.5,5802.62 10809.3,5804.92C10806.4,5808.09 10804,5811.72 10802.1,5814.82C10800.7,5817.22 10799.3,5824.16 10799.3,5826.58Z" style="fill:rgb(173,115,74);fill-rule:nonzero;stroke:rgb(173,115,74);stroke-width:2.19px;stroke-linecap:butt;stroke-linejoin:miter;stroke-miterlimit:3;"/>
        </g>
        <g transform="matrix(0.570719,0,0,0.570719,-5006.2,-3081.21)">
            <path d="M10884.3,5766.54C10890.7,5766.74 10894.8,5764.52 10894.8,5764.52L10894.8,5806.91C10899.5,5799.78 10901.3,5797.84 10910.8,5796.45C10927.5,5794.68 10929.1,5812.53 10929.1,5812.53L10933,5850.16L10935.7,5850.16L10935.7,5852.57L10922.5,5852.57L10922.5,5850.16L10925.3,5850.16L10921.1,5812.25C10920.4,5808.09 10919.6,5803.96 10915.9,5801.1C10914.1,5799.78 10909.7,5798.69 10904.9,5799.84C10903,5800.44 10901.2,5801.26 10899.6,5802.31C10898,5803.36 10896.7,5804.79 10895.7,5806.6C10895.3,5807.29 10895,5808 10894.8,5808.74L10894.8,5850.16L10897.5,5850.16L10897.5,5852.57L10884.3,5852.57L10884.3,5850.16L10887,5850.16L10887,5767.93L10884.3,5767.93L10884.3,5766.54Z" style="fill:rgb(173,115,74);fill-rule:nonzero;stroke:rgb(173,115,74);stroke-width:2.19px;stroke-linecap:butt;stroke-linejoin:miter;stroke-miterlimit:3;"/>
        </g>
        <g transform="matrix(0.570719,-3.16813e-17,3.16813e-17,0.570719,-4473.34,-3081.2)">
            <path d="M10099.4,5836.55C10098,5839.56 10096.3,5842.23 10094.2,5844.54C10091.8,5847.07 10089.3,5848.99 10086.6,5850.28C10083.8,5851.56 10080.9,5852.41 10077.7,5852.81C10074.6,5853.22 10071.5,5853.13 10068.6,5852.57C10065.6,5852.01 10062.7,5850.98 10059.9,5849.49C10057.1,5848 10054.7,5846.13 10052.7,5843.87C10050.6,5841.62 10049,5838.88 10047.7,5835.66C10046.5,5832.43 10045.9,5828.97 10045.9,5825.27C10045.9,5820.19 10047.1,5804.79 10061.2,5798.22C10071.6,5793.41 10081.5,5795.91 10085.7,5798.21C10089.8,5800.51 10091.1,5802.21 10093.7,5806.15L10053.3,5826.39C10053.9,5831.22 10058.4,5844.94 10074.4,5848.24C10082.8,5849.35 10090.2,5847.74 10096.1,5838.3C10096.1,5838.29 10096,5838.28 10096,5838.27C10094.3,5837.88 10093.4,5835.84 10093.9,5833.72C10094.4,5831.61 10096.1,5830.21 10097.8,5830.61C10099.5,5831.01 10100.4,5833.05 10099.9,5835.16C10099.8,5835.67 10099.6,5836.14 10099.4,5836.55ZM10053,5823.88L10088.7,5806.63C10084.7,5799.61 10072,5796.02 10062.5,5799.6C10052.6,5803.33 10051.8,5819.27 10053,5823.88Z" style="fill:rgb(173,115,74);fill-rule:nonzero;stroke:rgb(173,115,74);stroke-width:2.19px;stroke-linecap:butt;stroke-linejoin:miter;stroke-miterlimit:3;"/>
        </g>
        <g transform="matrix(0.570719,0,0,0.570719,-5006.2,-3081.21)">
            <path d="M10652.9,5801.48C10652,5799.78 10650.3,5798.77 10647.9,5798.44C10644.1,5797.88 10640.4,5799.09 10636.9,5802.07C10634.5,5804.27 10633,5806.82 10632.4,5809.71L10632.5,5850.19L10635,5850.19L10635,5852.58L10621.5,5852.5L10621.5,5850.12L10624.2,5850.12L10624.2,5807.27C10624.2,5805.98 10624.8,5801.95 10622,5801.22C10621.1,5801.22 10619.9,5801.23 10619.2,5801.22C10619.2,5800.5 10619.2,5800.3 10619.2,5799.9C10622.7,5799.78 10628.1,5800.33 10632.2,5798.22L10632.4,5798.07L10632.4,5807.23C10633.7,5804.33 10635.8,5801.98 10638.5,5800.2C10641.4,5798.3 10644.4,5797.36 10647.6,5797.36C10652.2,5797.36 10655.7,5799.25 10658.1,5803.04C10658.1,5803.18 10658.2,5803.31 10658.3,5803.44C10658.3,5803.55 10658.4,5803.66 10658.4,5803.78C10658.6,5804.4 10658.7,5804.95 10658.6,5805.41C10658.4,5807.46 10656.7,5809.07 10654.6,5809.07C10652.4,5809.07 10650.6,5807.28 10650.6,5805.07C10650.6,5803.5 10651.5,5802.13 10652.9,5801.48Z" style="fill:rgb(173,115,74);fill-rule:nonzero;stroke:rgb(173,115,74);stroke-width:2.19px;stroke-linecap:butt;stroke-linejoin:miter;stroke-miterlimit:3;"/>
        </g>
        <g transform="matrix(0.570719,0,0,0.570719,-4745.51,-3081.21)">
            <path d="M10652.9,5801.48C10652,5799.78 10650.3,5798.77 10647.9,5798.44C10644.1,5797.88 10640.4,5799.09 10636.9,5802.07C10634.5,5804.27 10633,5806.82 10632.4,5809.71L10632.5,5850.19L10635,5850.19L10635,5852.58L10621.5,5852.5L10621.5,5850.12L10624.2,5850.12L10624.2,5807.27C10624.2,5805.98 10624.1,5804.83 10623.7,5803.82C10623.3,5802.82 10622.8,5801.95 10622,5801.22C10621.1,5801.22 10619.9,5801.23 10619.2,5801.22C10619.2,5800.5 10619.2,5800.3 10619.2,5799.9L10623.8,5799.9C10624.2,5799.9 10625,5799.86 10625.9,5799.77C10626.9,5799.69 10627.7,5799.61 10628.3,5799.53C10628.9,5799.45 10629.6,5799.29 10630.3,5799.05C10631,5798.81 10631.6,5798.53 10632.2,5798.22L10632.4,5798.07L10632.4,5807.23C10633.7,5804.33 10635.8,5801.98 10638.5,5800.2C10641.4,5798.3 10644.4,5797.36 10647.6,5797.36C10652.2,5797.36 10655.7,5799.25 10658.1,5803.04C10658.1,5803.18 10658.2,5803.31 10658.3,5803.44C10658.3,5803.55 10658.4,5803.66 10658.4,5803.78C10658.6,5804.4 10658.7,5804.95 10658.6,5805.41C10658.4,5807.46 10656.7,5809.07 10654.6,5809.07C10652.4,5809.07 10650.6,5807.28 10650.6,5805.07C10650.6,5803.5 10651.5,5802.13 10652.9,5801.48Z" style="fill:rgb(173,115,74);fill-rule:nonzero;stroke:rgb(173,115,74);stroke-width:2.19px;stroke-linecap:butt;stroke-linejoin:miter;stroke-miterlimit:3;"/>
        </g>
        <g transform="matrix(0.570719,0,0,0.570719,-5006.2,-3081.21)">
            <path d="M10273.8,5803.73C10274.4,5803.02 10274.9,5802.34 10275.6,5801.71C10277.6,5799.77 10279.8,5798.4 10282.3,5797.6C10284.8,5796.79 10287.4,5796.51 10290.1,5796.75C10292.8,5796.99 10295.2,5797.74 10297.4,5798.99C10299.7,5800.24 10301.5,5802.11 10302.9,5804.61C10304.4,5807.1 10305.1,5810 10305.1,5813.31L10305.1,5845.2C10305.1,5847.13 10305.5,5848.77 10306.4,5850.09C10307.2,5851.42 10308.5,5852.25 10310.2,5852.57L10302.8,5852.57C10299,5852.57 10297.1,5850.11 10297.1,5845.2L10297.1,5842.42C10295.7,5846.13 10293.4,5848.89 10290.3,5850.7C10287.2,5852.51 10283.7,5853.42 10279.9,5853.42C10273.9,5853.42 10264,5850.27 10261.4,5840.19C10258.7,5829.15 10267.7,5823.06 10275.3,5819.37C10279.5,5817.31 10287.6,5815.47 10296.9,5814.87C10297.5,5810.56 10295.6,5804.16 10293.9,5802.07C10292.2,5799.98 10290.3,5798.75 10288.1,5798.39C10286,5798.02 10283.9,5798.16 10281.8,5798.81C10279.7,5799.45 10278,5800.8 10276.5,5802.86C10276,5803.65 10275.6,5804.5 10275.2,5805.4C10275.3,5805.4 10275.3,5805.41 10275.3,5805.42C10277,5805.82 10277.9,5807.86 10277.4,5809.97C10276.9,5812.09 10275.2,5814 10273.1,5812.95C10269.3,5810.65 10272.1,5806.42 10273.8,5803.73ZM10297.1,5836.49C10297.2,5830.94 10297.2,5819.57 10297.2,5817.06C10289.1,5817.78 10285.6,5818.28 10279,5821.31C10272.2,5823.75 10269,5829.01 10269,5836.5C10269,5845.06 10273.8,5851 10282.1,5851C10286.5,5851 10292,5848.25 10293.5,5845.92C10296.1,5842.38 10297.1,5841.17 10297.1,5838.19L10297.1,5836.49Z" style="fill:rgb(173,115,74);stroke:rgb(173,115,74);stroke-width:2.19px;stroke-linecap:butt;stroke-linejoin:miter;stroke-miterlimit:3;"/>
        </g>
        <g transform="matrix(0.570719,-3.16813e-17,3.16813e-17,0.570719,-5006.14,-3081.2)">
            <path d="M10099.4,5836.55C10098,5839.56 10096.3,5842.23 10094.2,5844.54C10091.8,5847.07 10089.3,5848.99 10086.6,5850.28C10083.8,5851.56 10080.9,5852.41 10077.7,5852.81C10074.6,5853.22 10071.5,5853.13 10068.6,5852.57C10065.6,5852.01 10062.7,5850.98 10059.9,5849.49C10057.1,5848 10054.7,5846.13 10052.7,5843.87C10050.6,5841.62 10049,5838.88 10047.7,5835.66C10046.5,5832.43 10045.9,5828.97 10045.9,5825.27C10045.9,5820.19 10047.1,5804.79 10061.2,5798.22C10071.6,5793.41 10081.5,5795.91 10085.7,5798.21C10089.8,5800.51 10091.1,5802.21 10093.7,5806.15L10053.3,5826.39C10053.9,5831.22 10058.4,5844.94 10074.4,5848.24C10082.8,5849.35 10090.2,5847.74 10096.1,5838.3C10096.1,5838.29 10096,5838.28 10096,5838.27C10094.3,5837.88 10093.4,5835.84 10093.9,5833.72C10094.4,5831.61 10096.1,5830.21 10097.8,5830.61C10099.5,5831.01 10100.4,5833.05 10099.9,5835.16C10099.8,5835.67 10099.6,5836.14 10099.4,5836.55ZM10053,5823.88L10088.7,5806.63C10084.7,5799.61 10072,5796.02 10062.5,5799.6C10052.6,5803.33 10051.8,5819.27 10053,5823.88Z" style="fill:rgb(173,115,74);fill-rule:nonzero;stroke:rgb(173,115,74);stroke-width:2.19px;stroke-linecap:butt;stroke-linejoin:miter;stroke-miterlimit:3;"/>
        </g>
    </g>
</svg>
